<svg width="375" height="812" viewBox="0 0 375 812" fill="none" xmlns="http://www.w3.org/2000/svg">
<rect width="375" height="812" fill="#E5E5E5"/>
<g clip-path="url(#clip0)">
<rect width="375" height="812" fill="white"/>
<g clip-path="url(#clip1)">
<path opacity="0.05" fill-rule="evenodd" clip-rule="evenodd" d="M375 0C349.37 53.065 300.882 86.618 229.536 100.66C122.518 121.722 163.03 142.966 110.453 185.126C75.4 213.233 38.917 228.857 1 232V0L375 0Z" fill="url(#paint0_linear)"/>
</g>
<path opacity="0.05" fill-rule="evenodd" clip-rule="evenodd" d="M-414 840C-339.644 686.066 -198.978 588.732 8 548C318.466 486.901 200.94 425.276 353.47 302.975C455.157 221.442 561 176.116 671 167V840H-414Z" fill="url(#paint1_linear)"/>
</g>
<defs>
<linearGradient id="paint0_linear" x1="1.00001" y1="71.3632" x2="276.619" y2="253.222" gradientUnits="userSpaceOnUse">
<stop stop-color="#8A4389" stop-opacity="0"/>
<stop offset="1" stop-color="#512051"/>
</linearGradient>
<linearGradient id="paint1_linear" x1="671" y1="632.965" x2="-128.591" y2="105.412" gradientUnits="userSpaceOnUse">
<stop stop-color="#8A4389" stop-opacity="0"/>
<stop offset="1" stop-color="#512051"/>
</linearGradient>
<clipPath id="clip0">
<rect width="375" height="812" fill="white"/>
</clipPath>
<clipPath id="clip1">
<rect width="374" height="232" fill="white" transform="translate(1)"/>
</clipPath>
</defs>
</svg>
